HIERARCHY
ROOT joint_Root
{
	OFFSET 0.0 0.0 0.0
	CHANNELS 6 Xposition Yposition Zposition Zrotation Xrotation Yrotation 
	JOINT Hips
	{
		OFFSET 4.5925 91.4895 -427.239
		CHANNELS 6 Xposition Yposition Zposition Zrotation Xrotation Yrotation 
		JOINT Spine
		{
			OFFSET 15.7357 0.0 0.0
			CHANNELS 6 Xposition Yposition Zposition Zrotation Xrotation Yrotation 
			JOINT Chest
			{
				OFFSET 8.98455 -0.406207 0.0
				CHANNELS 6 Xposition Yposition Zposition Zrotation Xrotation Yrotation 
				JOINT Neck
				{
					OFFSET 16.3773 0.0 0.0
					CHANNELS 6 Xposition Yposition Zposition Zrotation Xrotation Yrotation 
					JOINT Head
					{
						OFFSET 6.45672 0.0 0.0
						CHANNELS 6 Xposition Yposition Zposition Zrotation Xrotation Yrotation 
						End Site
						{
							OFFSET 0.0 0.0 0.0
						}
					}
				}
				JOINT Shoulder_L
				{
					OFFSET 12.9942 -0.242716 4.98039
					CHANNELS 6 Xposition Yposition Zposition Zrotation Xrotation Yrotation 
					JOINT UpperArm_L
					{
						OFFSET 5.34809 0.0 0.0
						CHANNELS 6 Xposition Yposition Zposition Zrotation Xrotation Yrotation 
						JOINT LowerArm_L
						{
							OFFSET 24.3286 1.87007e-05 0.0
							CHANNELS 6 Xposition Yposition Zposition Zrotation Xrotation Yrotation 
							JOINT Hand_L
							{
								OFFSET 22.2916 0.0 0.0
								CHANNELS 6 Xposition Yposition Zposition Zrotation Xrotation Yrotation 
								End Site
								{
									OFFSET 0.0 0.0 0.0
								}
							}
						}
					}
				}
				JOINT Shoulder_R
				{
					OFFSET 12.9945 -0.242716 -4.98039
					CHANNELS 6 Xposition Yposition Zposition Zrotation Xrotation Yrotation 
					JOINT UpperArm_R
					{
						OFFSET -5.34813 0.0 0.0
						CHANNELS 6 Xposition Yposition Zposition Zrotation Xrotation Yrotation 
						JOINT LowerArm_R
						{
							OFFSET -24.3289 0.000322201 0.0
							CHANNELS 6 Xposition Yposition Zposition Zrotation Xrotation Yrotation 
							JOINT Hand_R
							{
								OFFSET -22.2915 -0.000108084 0.0
								CHANNELS 6 Xposition Yposition Zposition Zrotation Xrotation Yrotation 
								End Site
								{
									OFFSET 0.0 0.0 0.0
								}
							}
						}
					}
				}
			}
		}
		JOINT UpperLeg_L
		{
			OFFSET -2.19248 -6.46944 0.0
			CHANNELS 6 Xposition Yposition Zposition Zrotation Xrotation Yrotation 
			JOINT LowerLeg_L
			{
				OFFSET 39.0811 0.0 -1.23785e-05
				CHANNELS 6 Xposition Yposition Zposition Zrotation Xrotation Yrotation 
				JOINT Foot_L
				{
					OFFSET 40.9854 0.0 -1.26872e-05
					CHANNELS 6 Xposition Yposition Zposition Zrotation Xrotation Yrotation 
					JOINT Toes_L
					{
						OFFSET 11.7543 0.0 0.0
						CHANNELS 6 Xposition Yposition Zposition Zrotation Xrotation Yrotation 
						End Site
						{
							OFFSET 0.0 0.0 0.0
						}
					}
				}
			}
		}
		JOINT UpperLeg_R
		{
			OFFSET -2.19251 6.46944 0.0
			CHANNELS 6 Xposition Yposition Zposition Zrotation Xrotation Yrotation 
			JOINT LowerLeg_R
			{
				OFFSET -39.0811 -0.00228153 -0.0401928
				CHANNELS 6 Xposition Yposition Zposition Zrotation Xrotation Yrotation 
				JOINT Foot_R
				{
					OFFSET -40.9854 0.0 0.0
					CHANNELS 6 Xposition Yposition Zposition Zrotation Xrotation Yrotation 
					JOINT Toes_R
					{
						OFFSET -11.7543 0.0 0.0
						CHANNELS 6 Xposition Yposition Zposition Zrotation Xrotation Yrotation 
						End Site
						{
							OFFSET 0.0 0.0 0.0
						}
					}
				}
			}
		}
	}
}
MOTION
Frames:	9
Frame Time:	0.0333333
0.000000 0.000000 0.000000 0.000000 0.000000 -0.000000 69.711900 88.584700 184.537000 -25.722200 81.345400 123.927000 15.735700 0.000005 -0.000001 87.388600 83.843600 -87.049300 8.984550 -0.406207 -0.000000 4.535990 -0.569579 0.700475 16.377300 -0.000001 -0.000001 2.018740 2.661770 -2.590050 6.456720 -0.000001 -0.000000 -1.640520 5.678420 -9.614950 12.994200 -0.242716 4.980390 -91.584400 4.831930 -71.821200 5.348090 -0.000007 -0.000001 -61.617300 37.518800 -23.833900 24.328600 0.000019 0.000005 9.790390 16.670400 -31.027200 22.291600 -0.000001 0.000005 12.360600 5.255750 1.279420 12.994500 -0.242716 -4.980390 88.377400 8.732780 -79.431500 -5.348130 -0.000001 -0.000004 -58.984400 30.700400 -12.287900 -24.328900 0.000322 -0.000009 2.335410 5.156640 -24.420000 -22.291500 -0.000108 -0.000004 12.248100 5.373890 -2.105880 -2.192480 -6.469440 -0.000000 178.931000 -12.625900 -1.467740 39.081100 -0.000007 -0.000012 0.079732 -0.098907 38.872700 40.985400 -0.000006 -0.000013 15.465800 -1.055380 -74.510600 11.754300 -0.000000 0.000003 -1.650450 -1.972700 -19.351100 -2.192510 6.469440 -0.000001 176.176000 2.968010 168.829000 -39.081100 -0.002282 -0.040193 0.002047 0.000535 64.511000 -40.985400 0.000008 0.000006 5.338190 -5.464750 -54.493600 -11.754300 -0.000006 -0.000006 -0.018437 -0.158471 -23.044800
0.000000 0.000000 0.000000 0.000000 0.000000 -0.000000 72.213300 89.255400 183.614000 -45.983700 77.823900 142.601000 15.735700 0.000005 -0.000001 82.680400 84.215400 -82.202200 8.984550 -0.406207 -0.000000 3.716320 -1.488900 1.003760 16.377300 -0.000001 -0.000001 1.611380 2.576680 -2.536690 6.456720 -0.000001 -0.000000 -1.441840 6.008160 -9.148630 12.994200 -0.242716 4.980390 -91.333800 4.213080 -72.416100 5.348090 -0.000007 -0.000001 -61.096000 38.820500 -27.768200 24.328600 0.000019 0.000005 11.747400 16.279900 -36.568000 22.291600 -0.000001 0.000005 11.178200 5.270690 0.879225 12.994500 -0.242716 -4.980390 88.285600 8.796890 -78.926300 -5.348130 -0.000001 -0.000004 -62.455800 29.088500 -6.552840 -24.328900 0.000322 -0.000009 2.242210 6.382940 -19.411900 -22.291500 -0.000108 -0.000004 10.675800 5.359290 -1.656920 -2.192480 -6.469440 -0.000000 179.687000 -10.746900 0.126048 39.081100 -0.000007 -0.000012 0.060257 -0.082564 36.122400 40.985400 -0.000006 -0.000013 16.100200 2.296100 -73.491000 11.754300 -0.000000 0.000003 -0.349790 -0.452611 -19.802300 -2.192510 6.469440 -0.000001 178.263000 3.155370 164.866000 -39.081100 -0.002282 -0.040193 0.006308 -0.001860 59.051000 -40.985400 0.000008 0.000006 5.820440 -5.322420 -56.828300 -11.754300 -0.000006 -0.000006 -0.020076 -0.167711 -23.425300
0.000000 0.000000 0.000000 0.000000 0.000000 -0.000000 74.787000 89.699500 182.767000 -57.204400 73.201600 152.315000 15.735700 0.000005 -0.000001 75.815300 84.409600 -75.180800 8.984550 -0.406207 -0.000000 3.092630 -2.762850 1.342500 16.377300 -0.000001 -0.000001 0.936832 2.444030 -2.317520 6.456720 -0.000001 -0.000000 -1.875330 6.443240 -8.545320 12.994200 -0.242716 4.980390 -91.114000 3.655490 -73.038700 5.348090 -0.000007 -0.000001 -61.163800 39.194400 -30.460600 24.328600 0.000019 0.000005 13.682400 15.471800 -42.383300 22.291600 -0.000001 0.000005 10.514400 5.277890 0.683913 12.994500 -0.242716 -4.980390 88.193200 8.742920 -78.275800 -5.348130 -0.000001 -0.000004 -65.761000 26.207600 -1.307320 -24.328900 0.000322 -0.000009 2.048830 7.546000 -15.247600 -22.291500 -0.000108 -0.000004 9.685240 5.339490 -1.063470 -2.192480 -6.469440 -0.000000 -179.589000 -7.662520 1.493190 39.081100 -0.000007 -0.000012 0.045955 -0.068556 33.834300 40.985400 -0.000006 -0.000013 16.673700 4.782150 -72.413400 11.754300 -0.000000 0.000003 -0.013822 -0.130276 -21.890400 -2.192510 6.469440 -0.000001 179.883000 4.457370 161.447000 -39.081100 -0.002282 -0.040193 0.022837 -0.015321 51.982200 -40.985400 0.000008 0.000006 5.335180 -3.886860 -58.116600 -11.754300 -0.000006 -0.000006 -0.020543 -0.170279 -23.531100
0.000000 0.000000 0.000000 0.000000 0.000000 -0.000000 77.516100 89.838800 181.888000 -63.467100 68.820700 157.248000 15.735700 0.000005 -0.000001 69.353500 84.456900 -68.602200 8.984550 -0.406207 -0.000000 2.640070 -3.939230 1.592190 16.377300 -0.000001 -0.000001 0.098538 2.328960 -1.980370 6.456720 -0.000001 -0.000000 -2.673220 6.957710 -8.040720 12.994200 -0.242716 4.980390 -90.955400 3.222040 -73.474400 5.348090 -0.000007 -0.000001 -60.991000 39.459300 -32.483800 24.328600 0.000019 0.000005 15.187300 14.167600 -47.960600 22.291600 -0.000001 0.000005 10.868400 5.278060 0.679605 12.994500 -0.242716 -4.980390 88.165900 8.491330 -77.764300 -5.348130 -0.000001 -0.000004 -68.502200 22.259500 3.262230 -24.328900 0.000322 -0.000009 1.818180 8.585870 -12.011600 -22.291500 -0.000108 -0.000004 9.133440 5.313260 -0.301913 -2.192480 -6.469440 -0.000000 -179.071000 -4.194720 2.775300 39.081100 -0.000007 -0.000012 0.036740 -0.058300 32.217700 40.985400 -0.000006 -0.000013 16.775900 6.271550 -71.938400 11.754300 -0.000000 0.000003 -0.018988 -0.161629 -23.178600 -2.192510 6.469440 -0.000001 -178.742000 6.409680 158.401000 -39.081100 -0.002282 -0.040193 0.030019 -0.027531 44.178200 -40.985400 0.000008 0.000006 4.467470 -1.274120 -58.887600 -11.754300 -0.000006 -0.000006 -0.019852 -0.166465 -23.373900
0.000000 0.000000 0.000000 0.000000 0.000000 -0.000000 80.484400 89.623300 180.957000 -67.186600 65.043900 160.018000 15.735700 0.000005 -0.000001 64.254100 84.419400 -63.410200 8.984550 -0.406207 -0.000000 2.331720 -4.884570 1.786500 16.377300 -0.000001 -0.000001 -0.686552 2.170200 -1.567840 6.456720 -0.000001 -0.000000 -3.669250 7.415720 -7.484840 12.994200 -0.242716 4.980390 -90.844800 2.934290 -73.931600 5.348090 -0.000007 -0.000001 -60.508100 39.648800 -33.477200 24.328600 0.000019 0.000005 16.057200 12.420800 -53.230000 22.291600 -0.000001 0.000005 12.389200 5.285630 0.472797 12.994500 -0.242716 -4.980390 88.149600 8.217680 -77.263700 -5.348130 -0.000001 -0.000004 -70.452400 18.584300 7.028450 -24.328900 0.000322 -0.000009 1.446850 8.946970 -9.231510 -22.291500 -0.000108 -0.000004 9.245790 5.290950 0.324421 -2.192480 -6.469440 -0.000000 -178.539000 -1.036810 4.250480 39.081100 -0.000007 -0.000012 0.034547 -0.056717 31.345900 40.985400 -0.000006 -0.000013 16.647400 7.368730 -71.817400 11.754300 -0.000000 0.000003 -0.027627 -0.206385 -25.026600 -2.192510 6.469440 -0.000001 -176.922000 8.907830 155.801000 -39.081100 -0.002282 -0.040193 0.027297 -0.032270 36.650300 -40.985400 0.000008 0.000006 4.159780 2.617860 -60.461700 -11.754300 -0.000006 -0.000006 -0.019984 -0.167201 -23.404200
0.000000 0.000000 0.000000 0.000000 0.000000 -0.000000 83.822800 89.020500 179.842000 -70.160000 62.039900 162.713000 15.735700 0.000005 -0.000001 61.017300 84.224500 -60.230600 8.984550 -0.406207 -0.000000 2.388320 -5.629580 1.690220 16.377300 -0.000001 -0.000001 -1.403000 2.092860 -1.146950 6.456720 -0.000001 -0.000000 -4.606870 7.657770 -6.739530 12.994200 -0.242716 4.980390 -90.752500 2.660100 -74.198900 5.348090 -0.000007 -0.000001 -59.532200 39.765900 -34.121700 24.328600 0.000019 0.000005 16.314700 10.784300 -57.411500 22.291600 -0.000001 0.000005 13.808700 5.303300 -0.019060 12.994500 -0.242716 -4.980390 88.150400 8.040750 -77.000400 -5.348130 -0.000001 -0.000004 -71.737700 15.806100 10.043300 -24.328900 0.000322 -0.000009 1.095550 9.003170 -6.973770 -22.291500 -0.000108 -0.000004 9.431920 5.271490 0.857807 -2.192480 -6.469440 -0.000000 -178.129000 0.847062 6.304870 39.081100 -0.000007 -0.000012 0.041838 -0.068698 31.341300 40.985400 -0.000006 -0.000013 16.903900 8.634290 -72.125800 11.754300 -0.000000 0.000003 -0.041389 -0.265610 -27.491700 -2.192510 6.469440 -0.000001 -174.942000 13.484000 153.842000 -39.081100 -0.002282 -0.040193 -0.020954 0.040384 30.987700 -40.985400 0.000008 0.000006 -0.768195 10.373900 -62.332300 -11.754300 -0.000006 -0.000006 -0.021306 -0.174421 -23.701800
0.000000 0.000000 0.000000 0.000000 0.000000 -0.000000 87.619300 88.060100 178.487000 -71.575700 59.854400 164.404000 15.735700 0.000005 -0.000001 59.992900 84.012600 -59.201100 8.984550 -0.406207 -0.000000 2.659150 -6.018790 1.723000 16.377300 -0.000001 -0.000001 -1.643660 2.085730 -0.663078 6.456720 -0.000001 -0.000000 -5.731780 7.808340 -6.199180 12.994200 -0.242716 4.980390 -90.749300 2.633500 -74.111400 5.348090 -0.000007 -0.000001 -57.351800 40.035900 -35.001200 24.328600 0.000019 0.000005 15.398400 9.150670 -59.997500 22.291600 -0.000001 0.000005 14.797900 5.319570 -0.483390 12.994500 -0.242716 -4.980390 88.154900 8.044570 -77.036700 -5.348130 -0.000001 -0.000004 -72.529200 14.082800 12.217600 -24.328900 0.000322 -0.000009 0.876455 9.834370 -5.124680 -22.291500 -0.000108 -0.000004 9.421340 5.251130 1.403100 -2.192480 -6.469440 -0.000000 -176.658000 0.249305 8.653470 39.081100 -0.000007 -0.000012 0.050465 -0.079587 32.377400 40.985400 -0.000006 -0.000013 17.501600 11.222300 -72.915600 11.754300 -0.000000 0.000003 -0.065234 -0.348433 -30.986400 -2.192510 6.469440 -0.000001 -173.226000 14.102600 150.911000 -39.081100 -0.002282 -0.040193 0.030371 -0.044348 31.402300 -40.985400 0.000008 0.000006 -1.345020 17.328200 -63.366300 -11.754300 -0.000006 -0.000006 -0.022976 -0.183248 -24.066000
0.000000 0.000000 0.000000 0.000000 0.000000 -0.000000 91.926100 86.835500 176.847000 -71.696200 57.570600 164.760000 15.735700 0.000005 -0.000001 58.311100 84.004600 -57.322800 8.984550 -0.406207 -0.000000 2.506680 -6.339080 2.114840 16.377300 -0.000001 -0.000001 -1.258880 1.874390 -0.415452 6.456720 -0.000001 -0.000000 -6.610800 7.681600 -5.667210 12.994200 -0.242716 4.980390 -90.870100 2.995960 -73.797400 5.348090 -0.000007 -0.000001 -54.344400 40.502000 -35.905500 24.328600 0.000019 0.000005 14.575100 8.408900 -60.645900 22.291600 -0.000001 0.000005 14.744700 5.335160 -0.936693 12.994500 -0.242716 -4.980390 87.997100 8.511980 -76.706900 -5.348130 -0.000001 -0.000004 -72.756500 13.837500 13.702500 -24.328900 0.000322 -0.000009 0.653507 10.884700 -3.462570 -22.291500 -0.000108 -0.000004 9.335600 5.233310 1.869710 -2.192480 -6.469440 -0.000000 -174.187000 -0.610715 10.254900 39.081100 -0.000007 -0.000012 0.050078 -0.071806 34.891600 40.985400 -0.000006 -0.000013 17.901800 14.030600 -73.025200 11.754300 -0.000000 0.000003 -0.109501 -0.467553 -36.140100 -2.192510 6.469440 -0.000001 -172.579000 11.691600 148.458000 -39.081100 -0.002282 -0.040193 0.019137 -0.021894 35.899300 -40.985400 0.000008 0.000006 -0.215001 17.895300 -57.519100 -11.754300 -0.000006 -0.000006 -0.024044 -0.188740 -24.292800
0.000000 0.000000 0.000000 0.000000 0.000000 -0.000000 96.741100 85.282100 174.556000 -73.771300 54.295300 167.863000 15.735700 0.000005 -0.000001 54.971800 83.777000 -54.046400 8.984550 -0.406207 -0.000000 2.502510 -7.180510 2.007720 16.377300 -0.000001 -0.000001 -0.889047 1.260980 -0.564438 6.456720 -0.000001 -0.000000 -6.123230 7.107110 -5.251540 12.994200 -0.242716 4.980390 -91.017500 3.455060 -73.580100 5.348090 -0.000007 -0.000001 -51.103600 41.718900 -36.714500 24.328600 0.000019 0.000005 14.569400 8.896370 -59.247700 22.291600 -0.000001 0.000005 13.981500 5.343130 -1.172700 12.994500 -0.242716 -4.980390 87.671700 8.960020 -75.369600 -5.348130 -0.000001 -0.000004 -72.540300 14.232600 14.758200 -24.328900 0.000322 -0.000009 0.496460 12.247400 -2.344200 -22.291500 -0.000108 -0.000004 9.056110 5.213450 2.379920 -2.192480 -6.469440 -0.000000 -172.955000 0.445812 11.607200 39.081100 -0.000007 -0.000012 0.050138 -0.060432 39.680400 40.985400 -0.000006 -0.000013 18.178300 16.243700 -70.682600 11.754300 -0.000000 0.000003 -0.183169 -0.616400 -42.877500 -2.192510 6.469440 -0.000001 -174.811000 8.802370 148.209000 -39.081100 -0.002282 -0.040193 -0.154052 0.153488 45.705300 -40.985400 0.000008 0.000006 -0.589177 11.741200 -62.968100 -11.754300 -0.000006 -0.000006 -0.005198 -0.063369 -19.151600
